# File created by Blade
# Date/Time:  Thu Jan 22 16:52:56 2015
# Frame Rate: 120.000 fps
#------------------------------------------------------
:FULLY-SPECIFIED
:DEGREES
1025
root 2.784014 3.850112 -0.360789 -34.488543 -5.101725 17.497846
RightUpLeg -56.627862 -24.204176 -33.611825
RightLeg 5.701364 -0.000000 -0.000000
RightFoot -1.891754 -21.052083 29.442224
RightToeBase -20.686885 -0.000000 0.000000
LeftUpLeg -38.677044 37.675513 14.005060
LeftLeg -2.392167 -0.000000 0.000000
LeftFoot 12.631578 26.121986 -33.558275
LeftToeBase 1.463609 -0.000000 -0.000000
Spine 70.871076 -22.698663 9.583115
RightShoulder 16.488713 53.154585 -30.771952
RightArm 13.915338 19.728972 38.310059
RightForeArm -31.389946 -0.000000 42.274834
RightHand 1.052236 -0.000000 -12.722470
RightHandThumb1 -24.326973 -0.000000 -32.862282
LeftShoulder -10.267378 0.757142 55.823604
LeftArm 108.548578 -44.236674 -44.666987
LeftForeArm 64.549181 -0.000000 30.362615
LeftHand -8.537700 -0.000000 -3.904859
LeftHandThumb1 -26.253704 0.000000 33.147579
Head 54.705456 -20.636772 20.540500
1026
root 2.785092 3.848165 -0.361122 -34.504067 -5.094584 17.488581
RightUpLeg -56.614532 -24.204416 -33.616867
RightLeg 5.714080 -0.000000 -0.000000
RightFoot -1.915515 -21.047916 29.445135
RightToeBase -20.640809 -0.000000 0.000000
LeftUpLeg -38.680899 37.678822 13.999208
LeftLeg -2.382060 -0.000000 0.000000
LeftFoot 12.606357 26.154968 -33.554189
LeftToeBase 1.494575 -0.000000 -0.000000
Spine 70.855454 -22.696484 9.549684
RightShoulder 16.534587 53.200388 -30.741521
RightArm 13.918776 19.680773 38.350356
RightForeArm -31.284160 0.000000 42.183450
RightHand 1.005548 0.000000 -12.799871
RightHandThumb1 -24.326973 -0.000000 -32.862282
LeftShoulder -10.246671 0.787944 55.837889
LeftArm 108.552670 -44.212705 -44.661621
LeftForeArm 64.647838 0.000000 30.326468
LeftHand -8.467620 -0.000000 -3.915253
LeftHandThumb1 -26.253704 0.000000 33.147579
Head 54.707579 -20.599807 20.571039
1027
root 2.784128 3.847586 -0.361334 -34.508619 -5.111621 17.491330
RightUpLeg -56.621791 -24.181218 -33.614813
RightLeg 5.723201 -0.000000 -0.000000
RightFoot -1.908918 -21.048351 29.377496
RightToeBase -20.790342 -0.000000 0.000000
LeftUpLeg -38.667152 37.699609 14.018761
LeftLeg -2.379021 -0.000000 0.000000
LeftFoot 12.567654 26.188336 -33.586600
LeftToeBase 1.465454 -0.000000 -0.000000
Spine 70.826784 -22.659102 9.532976
RightShoulder 16.606188 53.337384 -30.676774
RightArm 13.828100 19.623061 38.410974
RightForeArm -31.279220 0.000000 42.133551
RightHand 0.986802 -0.000000 -12.790596
RightHandThumb1 -24.326973 -0.000000 -32.862282
LeftShoulder -10.234330 0.693079 55.858162
LeftArm 108.497258 -44.090177 -44.572689
LeftForeArm 64.749668 0.000000 30.216862
LeftHand -8.349831 -0.000000 -3.886074
LeftHandThumb1 -26.253704 0.000000 33.147579
Head 54.735663 -20.569871 20.580151
1028
root 2.783793 3.847172 -0.361984 -34.536881 -5.107750 17.481790
RightUpLeg -56.595420 -24.171121 -33.623484
RightLeg 5.736921 -0.000000 -0.000000
RightFoot -1.927013 -21.042858 29.403628
RightToeBase -20.865313 -0.000000 0.000000
LeftUpLeg -38.650474 37.701607 14.027846
LeftLeg -2.371308 -0.000000 0.000000
LeftFoot 12.558512 26.210535 -33.572365
LeftToeBase 1.440358 -0.000000 -0.000000
Spine 70.837696 -22.630085 9.500795
RightShoulder 16.664085 53.492399 -30.597539
RightArm 13.727113 19.510806 38.414925
RightForeArm -31.198069 -0.000000 42.063907
RightHand 0.942133 -0.000000 -12.780267
RightHandThumb1 -24.326973 -0.000000 -32.862282
LeftShoulder -10.237934 0.665139 55.931722
LeftArm 108.489558 -44.025963 -44.553526
LeftForeArm 64.815451 0.000000 30.118455
LeftHand -8.238220 -0.000000 -3.868719
LeftHandThumb1 -26.253704 0.000000 33.147579
Head 54.700578 -20.392400 20.880578
1029
root 2.784623 3.845322 -0.362747 -34.565419 -5.099001 17.465810
RightUpLeg -56.554901 -24.155247 -33.655880
RightLeg 5.755405 -0.000000 -0.000000
RightFoot -1.981591 -21.052492 29.464297
RightToeBase -20.770744 -0.000000 0.000000
LeftUpLeg -38.619131 37.665912 14.066369
LeftLeg -2.366488 -0.000000 0.000000
LeftFoot 12.528227 26.258241 -33.574014
LeftToeBase 1.450449 -0.000000 -0.000000
Spine 70.839900 -22.633504 9.479116
RightShoulder 16.714208 53.595219 -30.585986
RightArm 13.626569 19.453998 38.429035
RightForeArm -30.863036 -0.000000 42.025680
RightHand 0.599541 -0.000000 -12.504575
RightHandThumb1 -24.326973 -0.000000 -32.862282
LeftShoulder -10.190224 0.880523 55.907961
LeftArm 108.617198 -44.221135 -44.581712
LeftForeArm 64.876005 0.000000 30.056937
LeftHand -8.140893 -0.000000 -3.897992
LeftHandThumb1 -26.253704 0.000000 33.147579
Head 54.672948 -20.350264 20.905471
1030
root 2.782483 3.845690 -0.362151 -34.584161 -5.097482 17.451262
RightUpLeg -56.540008 -24.166963 -33.630001
RightLeg 5.754759 -0.000000 -0.000000
RightFoot -1.970885 -21.034923 29.418866
RightToeBase -20.880935 -0.000000 0.000000
LeftUpLeg -38.607758 37.671148 14.082240
LeftLeg -2.358028 -0.000000 0.000000
LeftFoot 12.521429 26.245798 -33.592703
LeftToeBase 1.444198 -0.000000 -0.000000
Spine 70.825328 -22.613194 9.468471
RightShoulder 16.773769 53.636908 -30.499707
RightArm 13.591326 19.338815 38.365828
RightForeArm -30.822795 0.000000 41.941650
RightHand 0.665009 -0.000000 -12.570545
RightHandThumb1 -24.326973 -0.000000 -32.862282
LeftShoulder -10.183013 0.801422 55.954061
LeftArm 108.563268 -44.121312 -44.490206
LeftForeArm 64.970318 -0.000000 29.947968
LeftHand -8.025724 -0.000000 -3.889305
LeftHandThumb1 -26.253704 0.000000 33.147579
Head 54.620459 -20.356756 20.990674
1031
root 2.782986 3.844882 -0.363805 -34.601900 -5.095217 17.438228
RightUpLeg -56.527628 -24.174226 -33.616433
RightLeg 5.766887 -0.000000 -0.000000
RightFoot -1.996446 -21.022391 29.435739
RightToeBase -20.809678 -0.000000 0.000000
LeftUpLeg -38.598804 37.663109 14.094444
LeftLeg -2.351566 -0.000000 0.000000
LeftFoot 12.514425 26.240759 -33.585366
LeftToeBase 1.481824 -0.000000 -0.000000
Spine 70.807545 -22.617584 9.462007
RightShoulder 16.823014 53.635870 -30.485044
RightArm 13.592774 19.373010 38.382951
RightForeArm -30.975070 0.000000 41.875694
RightHand 0.914095 -0.000000 -12.784590
RightHandThumb1 -24.326973 -0.000000 -32.862282
LeftShoulder -10.146336 0.745389 55.976522
LeftArm 108.457695 -44.071592 -44.384828
LeftForeArm 65.043151 -0.000000 29.895129
LeftHand -7.967414 0.000000 -3.931465
LeftHandThumb1 -26.253704 0.000000 33.147579
Head 54.567666 -20.265169 21.082713
1032
root 2.781912 3.846042 -0.365083 -34.618314 -5.108573 17.426709
RightUpLeg -56.516573 -24.169709 -33.589361
RightLeg 5.760285 -0.000000 -0.000000
RightFoot -1.991770 -21.028480 29.410716
RightToeBase -20.901478 -0.000000 0.000000
LeftUpLeg -38.587405 37.688980 14.101972
LeftLeg -2.357153 -0.000000 0.000000
LeftFoot 12.532797 26.208871 -33.581822
LeftToeBase 1.447856 -0.000000 -0.000000
Spine 70.808585 -22.604042 9.461553
RightShoulder 16.806456 53.642279 -30.500836
RightArm 13.610240 19.377057 38.417962
RightForeArm -31.070842 0.000000 41.834544
RightHand 0.748965 -0.000000 -12.867287
RightHandThumb1 -24.326973 -0.000000 -32.862282
LeftShoulder -10.144758 0.689670 55.989091
LeftArm 108.390215 -44.015965 -44.271284
LeftForeArm 65.159627 0.000000 29.826252
LeftHand -7.886570 -0.000000 -4.095470
LeftHandThumb1 -26.253704 0.000000 33.147579
Head 54.561507 -20.220867 21.126884
1033
root 2.781615 3.846484 -0.366443 -34.623945 -5.101988 17.418972
RightUpLeg -56.499489 -24.180008 -33.586533
RightLeg 5.752362 -0.000000 -0.000000
RightFoot -2.005217 -21.038954 29.418557
RightToeBase -20.843302 -0.000000 0.000000
LeftUpLeg -38.588708 37.689530 14.091754
LeftLeg -2.364118 -0.000000 0.000000
LeftFoot 12.536374 26.188417 -33.571984
LeftToeBase 1.449423 -0.000000 -0.000000
Spine 70.795662 -22.594303 9.451784
RightShoulder 16.778685 53.606743 -30.495481
RightArm 13.680145 19.376085 38.421401
RightForeArm -31.074832 -0.000000 41.768544
RightHand 0.731252 -0.000000 -12.836253
RightHandThumb1 -24.326973 -0.000000 -32.862282
LeftShoulder -10.170811 0.561909 56.048486
LeftArm 108.288216 -43.857633 -44.183787
LeftForeArm 65.305267 0.000000 29.781783
LeftHand -7.852503 -0.000000 -4.160628
LeftHandThumb1 -26.253704 0.000000 33.147579
Head 54.588684 -20.262058 21.031721
1034
root 2.781483 3.846861 -0.367395 -34.628692 -5.097551 17.406923
RightUpLeg -56.486863 -24.190823 -33.581489
RightLeg 5.756988 -0.000000 -0.000000
RightFoot -2.033166 -21.041726 29.439358
RightToeBase -20.750910 -0.000000 0.000000
LeftUpLeg -38.594615 37.696844 14.076819
LeftLeg -2.378374 -0.000000 0.000000
LeftFoot 12.548556 26.160976 -33.556109
LeftToeBase 1.452776 -0.000000 -0.000000
Spine 70.779764 -22.610328 9.449724
RightShoulder 16.731182 53.599760 -30.543951
RightArm 13.755901 19.336478 38.469701
RightForeArm -30.976526 -0.000000 41.680755
RightHand 0.672214 -0.000000 -12.934696
RightHandThumb1 -24.326973 -0.000000 -32.862282
LeftShoulder -10.194082 0.434096 56.052172
LeftArm 108.179724 -43.707743 -44.056266
LeftForeArm 65.447252 0.000000 29.721633
LeftHand -7.830351 0.000000 -4.186380
LeftHandThumb1 -26.253704 0.000000 33.147579
Head 54.632624 -20.204885 21.001115
